<svg id="Laag_1" data-name="Laag 1" xmlns="http://www.w3.org/2000/svg" viewBox="0 0 81 71.18"><defs><style>.cls-1{fill:#743174;stroke:#000;}.cls-1,.cls-2{stroke-miterlimit:10;}.cls-2{fill:#fff;stroke:#317431;}.cls-3{fill:#317431;}</style></defs><title>Blank Canvas Logo</title><g id="B1"><path class="cls-1" d="M9.65,24.08H6.49V22h1V14.6H5.43V6.18S40.19,5.12,22.29,17.76c8.42,2.11,16.85,8.43-10.54,21.07-3.16-4.22-5.26-7.38-5.26-7.38H10.7Z" transform="translate(0 -0.41)"/><path d="M13.86,12.49l1.05,7.38S26.5,14.6,13.86,12.49Z" transform="translate(0 -0.41)"/><path d="M17,27.24V20.92S29.66,22,17,27.24Z" transform="translate(0 -0.41)"/></g><path id="L1" class="cls-1" d="M21.23,33.56h2.11V15.65H21.23S19.13,3,27.55,5.12s3.16,10.53,3.16,10.53L29.66,33.56s9.48-1.05,4.21-5.27c-1-4.21,5.27-9.48,8.43-1.05s3.16,10.53-21.07,13.69C19.13,37.77,21.23,33.56,21.23,33.56Z" transform="translate(0 -0.41)"/><g id="A1"><path class="cls-1" d="M36.51,2.49h6.31s7.38,24.22,5.27,28.44C46,32,41.77,35.14,40.72,33V26.19H36v7.37s-6.32,0-7.37-2.11S31.77,7.23,36.51,2.49Z" transform="translate(0 -0.41)"/><path d="M36,23s0-8.43,2.11-8.43S43.35,23,41.25,23Z" transform="translate(0 -0.41)"/></g><path id="N1" class="cls-1" d="M44.4,32.51h3.16s-6.31-5.27-4.21-20c6.32-3.15,7.37-3.15,7.37-3.15L61.26,32.51s2.1-16.86-2.11-26.33c1.05-2.11,9.48,0,10.53,10.53l-2.1-1.06v20s-3.16,5.26-6.32,3.16C60.2,36.72,49.67,13.55,49.67,13.55S47.56,28.29,58.1,38.83C56,40.93,49.67,43,44.4,32.51Z" transform="translate(0 -0.41)"/><path id="K1" class="cls-1" d="M57,22H53.88V18.81h1.06V10.39H51.78S50.72.91,60.2.91V17.76s19-8.42,4.22-11.58c0-3.16,17.9-9.48,8.42,5.26,3.16,0,10.54-3.16,5.27,12.64l2.11,1.05s3.16,8.43-11.59,10.54c0-5.27,5.27-19,3.16-20s-8.43,2.11-8.43,2.11l4.22,11.59S59.15,34.61,57,26.19H60.2Z" transform="translate(0 -0.41)"/><path class="cls-2" d="M13,52.8s4.48-3.91,3-7.65C13.86,39.88,10.7,30.4,3.33,42s1,30.54,9.48,28.43,7.37-11.58,6.32-14.74-5.27-1-5.27,1,0,8.43-4.21,3.16c-4.08-5.1,1.91-23,2.09-7.9C11.75,53.57,13,52.8,13,52.8Z" transform="translate(0 -0.41)"/><g id="A1-2" data-name="A1"><path class="cls-2" d="M20.71,30.93H27s7.37,24.22,5.26,28.43c-2.1,1.06-6.32,4.22-7.37,2.11V54.63H20.18V62s-6.32,0-7.37-2.11S16,35.67,20.71,30.93Z" transform="translate(0 -0.41)"/><path class="cls-3" d="M20.18,51.47s0-8.43,2.11-8.43,5.26,8.43,3.16,8.43Z" transform="translate(0 -0.41)"/></g><path id="N1-2" data-name="N1" class="cls-2" d="M25.45,63.05h3.16s-6.32-5.26-4.22-20c6.32-3.16,7.38-3.16,7.38-3.16L42.3,63.05s2.1-16.85-2.11-26.33c1.06-2.11,9.48,0,10.53,10.53l-2.1-1v20s-3.16,5.27-6.32,3.16c-1-2.11-11.59-25.28-11.59-25.28s-2.1,14.75,8.43,25.28C37,71.48,30.71,73.58,25.45,63.05Z" transform="translate(0 -0.41)"/><path class="cls-2" d="M34.93,36.72s-3.16,1.05-3.16-2.11S30.71,26.19,36,28.29s5.27-1.05,5.27,7.38V50.41l3.15-15.8s2.11-6.32,5.27,0-3.16,19-3.16,19-4.21,14.75-7.37,6.32S33.87,40.93,34.93,36.72Z" transform="translate(0 -0.41)"/><g id="A1-3" data-name="A1"><path class="cls-2" d="M52.3,32h6.32S66,56.21,63.89,60.42c-2.11,1-6.32,4.21-7.37,2.1V55.68H51.78v7.37s-6.32,0-7.38-2.11S47.56,36.72,52.3,32Z" transform="translate(0 -0.41)"/><path class="cls-3" d="M51.78,52.52s0-8.43,2.1-8.43,5.27,8.43,3.16,8.43Z" transform="translate(0 -0.41)"/></g><path class="cls-2" d="M60.2,54.63s-2.1,1-2.1-3.16,5.26-7.38,5.26-3.16,3.16,7.37,5.27,6.32-3.16-7.38-3.16-7.38S60.2,43,60.2,37.77s2.11-7.37,6.32-7.37,8.43,5.27,6.32,9.48-4.21,1-5.26-1.05-5.27,0,1,5.26S77.06,54.63,75,58.84,66.52,63.05,65.47,62,59.15,57.79,60.2,54.63Z" transform="translate(0 -0.41)"/></svg>