<?xml version="1.0" standalone="no"?>
<!DOCTYPE svg PUBLIC "-//W3C//DTD SVG 20010904//EN"
 "http://www.w3.org/TR/2001/REC-SVG-20010904/DTD/svg10.dtd">
<svg version="1.0" xmlns="http://www.w3.org/2000/svg"
 width="560.000000pt" height="560.000000pt" viewBox="0 0 560.000000 560.000000"
 preserveAspectRatio="xMidYMid meet">
<metadata>
Created by potrace 1.11, written by Peter Selinger 2001-2013
</metadata>
<g transform="translate(0.000000,560.000000) scale(0.100000,-0.100000)"
fill="#000000" stroke="none">
<path d="M1889 5563 c-1 -41 0 -670 1 -715 l0 -27 78 1 c42 0 83 0 90 -1 9 -1
12 -64 12 -280 l0 -278 -32 -1 c-18 0 -39 0 -45 -1 -10 -1 -13 -34 -13 -131
l0 -130 139 0 139 0 7 -46 c3 -25 8 -54 10 -63 2 -10 6 -42 10 -71 4 -29 8
-62 11 -73 2 -10 6 -45 9 -76 4 -31 8 -63 10 -71 2 -8 7 -35 10 -60 3 -25 8
-57 11 -72 l6 -28 -196 0 c-108 0 -196 -2 -196 -6 0 -5 74 -117 92 -139 5 -5
42 -59 84 -119 42 -60 87 -124 101 -143 14 -18 21 -33 17 -34 -51 -4 -136 -44
-199 -93 -172 -133 -391 -450 -479 -694 -65 -182 -66 -192 -66 -644 0 -381 2
-420 20 -498 117 -486 375 -884 675 -1039 l59 -31 198 0 c210 0 250 7 347 63
236 136 368 351 409 662 13 99 5 366 -13 417 -2 7 -6 27 -9 43 -8 50 -35 144
-50 174 -60 114 -204 149 -341 82 -78 -39 -147 -112 -163 -173 -6 -24 -14 -99
-17 -168 -6 -144 -11 -177 -34 -239 -21 -59 -52 -76 -95 -54 -44 23 -141 118
-177 174 -37 59 -75 166 -86 246 -17 124 -9 378 17 511 37 195 110 375 137
339 9 -11 25 -66 37 -127 7 -36 17 -180 20 -286 3 -102 18 -143 59 -162 68
-33 144 19 259 173 110 147 165 302 154 431 -5 57 -55 206 -107 321 -10 23
-19 44 -19 46 0 10 -91 196 -123 251 l-34 59 186 93 c171 86 311 160 386 205
17 10 46 27 65 37 81 42 318 199 425 281 173 133 302 268 379 396 l36 60 0
179 0 179 -31 48 c-44 70 -122 136 -235 201 -66 38 -280 128 -305 128 -8 0
-20 4 -27 9 -10 6 1 21 45 56 231 187 337 347 326 488 -17 213 -289 356 -822
433 -25 4 -55 9 -66 12 -11 3 -262 7 -557 9 l-538 4 -1 -38z"/>
</g>
</svg>
